<svg width="43" height="28" viewBox="0 0 43 28" fill="none" xmlns="http://www.w3.org/2000/svg">
<path d="M42.7711 0.199219H0.230469V26.9851H42.7711V0.199219Z" fill="white"/>
<path d="M42.9727 27.185H0.0292969V0H42.9727V27.185ZM0.432143 26.7859H42.5699V0.399193H0.432143V26.7859Z" fill="#030303"/>
<path d="M0.957031 0.837891V26.3463H42.0072V15.4084V0.837891H0.957031Z" fill="#006FCF"/>
<mask id="mask0" mask-type="alpha" maskUnits="userSpaceOnUse" x="0" y="5" width="43" height="18">
<path d="M0.955078 5.85742V22.5437H42.0052V5.85742H0.955078Z" fill="white"/>
</mask>
<g mask="url(#mask0)">
<path d="M36.9728 12.9631H40.0747V5.85742H36.7714V6.97516L36.0463 5.85742H33.1861V7.29452L32.5415 5.85742H27.7879C27.5462 5.85742 27.3448 5.85742 27.1031 5.89734C26.9016 5.93726 26.7405 5.97718 26.5794 6.0171C26.4585 6.05702 26.2974 6.09694 26.1765 6.17678C26.0154 6.25662 25.8945 6.33645 25.7334 6.41629V6.17678V5.85742H10.264L9.86118 7.09492L9.45833 5.85742H5.87299V7.29452L5.18816 5.85742H2.24737L0.917969 8.89129V12.3244V12.9631H3.01277L3.41562 11.9252H4.14075L4.5436 12.9631H20.5366V11.9252L21.3423 12.9631H25.7737V12.7235V12.4441C25.8945 12.5239 26.0154 12.5639 26.1362 12.6437C26.2571 12.6836 26.3779 12.7635 26.4988 12.8034C26.6599 12.8433 26.8211 12.8832 26.9822 12.9231C27.2239 12.9631 27.5059 13.003 27.7476 13.003H30.4064L30.8093 11.9651H31.5344L31.9372 13.003H36.3686V11.9651L36.9728 12.9631ZM42.0084 22.1046V15.4381H41.6459H16.5485L15.9039 16.3562L15.2593 15.4381H7.92752V22.5437H15.2191L15.8636 21.6256L16.5082 22.5437H21.0604V21.0268H21.0201C21.5841 21.0268 22.1077 20.907 22.5509 20.7473V22.5437H25.7334V21.5058L26.5391 22.5437H40.3567C40.7596 22.5437 41.1221 22.4639 41.4444 22.3441C41.6861 22.2643 41.8473 22.1844 42.0084 22.1046Z" fill="white"/>
<mask id="mask1" mask-type="alpha" maskUnits="userSpaceOnUse" x="9" y="16" width="34" height="6">
<path d="M42.0479 21.3548V16.5645H9.05469V21.3548H42.0479Z" fill="white"/>
</mask>
<g mask="url(#mask1)">
<path d="M40.3982 20.3956H37.9005V21.3537H40.3579C41.4053 21.3537 42.0095 20.715 42.0095 19.8367C42.0095 18.9984 41.4456 18.4795 40.519 18.4795H39.391C39.109 18.4795 38.9076 18.3198 38.9076 18.0404C38.9076 17.7609 39.109 17.5613 39.391 17.5613H41.4858L41.929 16.6033H39.4313C38.3839 16.6033 37.7796 17.242 37.7796 18.0803C37.7796 18.9585 38.3839 19.4775 39.2702 19.4775H40.3982C40.6801 19.4775 40.8816 19.6371 40.8816 19.9565C40.8816 20.2359 40.6801 20.3956 40.3982 20.3956ZM35.8057 20.3956H33.308V21.3537H35.7654C36.8128 21.3537 37.4171 20.715 37.4171 19.8367C37.4171 18.9984 36.8531 18.4795 35.9265 18.4795H34.7986C34.5166 18.4795 34.3152 18.3198 34.3152 18.0404C34.3152 17.7609 34.5166 17.5613 34.7986 17.5613H36.8934L37.3365 16.6033H34.8389C33.7915 16.6033 33.1872 17.242 33.1872 18.0803C33.1872 18.9585 33.7915 19.4775 34.6777 19.4775H35.8057C36.0877 19.4775 36.2891 19.6371 36.2891 19.9565C36.2891 20.2359 36.0877 20.3956 35.8057 20.3956ZM32.6232 17.5613V16.6033H28.7559V21.3936H32.6232V20.4355H29.9241V19.4775H32.5829V18.5194H29.9241V17.6013H32.6232V17.5613ZM26.1374 17.5613C26.5402 17.5613 26.7819 17.8408 26.7819 18.1601C26.7819 18.4795 26.5805 18.7589 26.1374 18.7589H24.7677V17.5613H26.1374ZM24.7677 19.6371H25.3317L26.7819 21.3537H28.2322L26.6208 19.5972C27.4265 19.4375 27.9502 18.8388 27.9502 18.0803C27.9502 17.2021 27.3056 16.5634 26.2582 16.5634H23.6397V21.3537H24.808V19.6371H24.7677ZM21.8269 18.2C21.8269 18.5194 21.6255 18.7988 21.2226 18.7988H19.8529V17.6412H21.2226C21.6255 17.6013 21.8269 17.8408 21.8269 18.2ZM18.6444 16.5634V21.3537H19.8127V19.7569H21.2629C22.3103 19.7569 22.9952 19.0783 22.9952 18.1601C22.9952 17.2021 22.3506 16.5634 21.3032 16.5634H18.6444ZM16.9524 21.3537H18.4027L16.469 18.9186L18.4027 16.5234H16.9927L15.7842 18.0404L14.6159 16.5234H13.1657L15.0993 18.9186L13.1657 21.3137H14.5756L15.7842 19.7569L16.9524 21.3537ZM12.924 17.5613V16.6033H9.05664V21.3936H12.924V20.4355H10.2249V19.4775H12.8837V18.5194H10.2249V17.6013H12.924V17.5613Z" fill="#006FCF"/>
</g>
<path d="M35.359 8.93175V8.53256L35.6007 8.93175L37.4538 11.8059H38.8234V7.01562H37.6955V9.77006V10.1293L37.494 9.80998L35.6812 7.05554H34.2713V11.8459H35.3992V8.93175H35.359ZM30.7262 8.81199L31.0888 7.93377L31.4513 8.81199L31.8945 9.88982H30.3234L30.7262 8.81199ZM32.6599 11.8059H33.949L31.8945 7.01562H30.3636L28.3091 11.8059H29.5579L29.9608 10.768H32.257L32.6599 11.8059ZM27.584 11.8059H27.6646L28.148 10.768H27.7854C26.9797 10.768 26.5366 10.289 26.5366 9.41078V9.37086C26.5366 8.6124 26.9394 8.05353 27.7854 8.05353H29.0343V7.01562H27.6646C26.174 7.01562 25.3683 8.01361 25.3683 9.37086V9.4507C25.3683 10.8878 26.2143 11.8059 27.584 11.8059ZM23.475 11.8059H24.6432V9.69022V7.01562H23.475V9.69022V11.8059ZM21.0176 8.01361C21.4204 8.01361 21.6622 8.29304 21.6622 8.6124C21.6622 8.93175 21.4607 9.21119 21.0176 9.21119H19.6479V8.01361H21.0176ZM19.6882 10.0894H20.2522L21.7024 11.8059H23.1527L21.5413 10.0495C22.347 9.88982 22.8707 9.29103 22.8707 8.53256C22.8707 7.65433 22.2261 7.01562 21.1787 7.01562H18.5602V11.8059H19.7285V10.0894H19.6882ZM17.674 8.01361V7.01562H13.8066V11.8059H17.674V10.808H14.9749V9.88982H17.6337V8.93175H14.9749V8.01361H17.674ZM8.04592 8.53256L8.00564 7.25514L9.33503 11.8059H10.3824L11.7118 7.25514V8.53256V11.8059H12.8398V7.01562H10.7853L9.85873 10.4088L8.93219 7.01562H6.87766V11.8059H8.00564V8.53256H8.04592ZM3.41318 8.81199L3.77574 7.93377L4.1383 8.81199L4.58144 9.88982H3.01033L3.41318 8.81199ZM5.34684 11.8059H6.63595L4.58144 7.01562H3.05062L0.996094 11.8059H2.24492L2.64777 10.768H4.944L5.34684 11.8059Z" fill="#006FCF"/>
</g>
<script xmlns=""/><script xmlns=""/></svg>