<svg width="79" height="23" viewBox="0 0 79 23" fill="none" xmlns="http://www.w3.org/2000/svg">
<path d="M78.5142 19.6257C78.5142 18.4326 77.6511 17.559 76.4622 17.559C75.2752 17.559 74.4112 18.4326 74.4112 19.6257C74.4112 20.8169 75.2752 21.6891 76.4622 21.6891C77.6511 21.6891 78.5142 20.8154 78.5142 19.6257ZM75.923 19.7317V21.0816H75.4781V18.105H76.5836C77.2314 18.105 77.5286 18.3823 77.5286 18.9229C77.5286 19.2559 77.2991 19.5197 77.0033 19.558V19.5705C77.26 19.6107 77.3544 19.8353 77.4072 20.2462C77.4477 20.5124 77.5015 20.9742 77.5983 21.0826H77.0719C76.9495 20.8028 76.9618 20.4069 76.8675 20.0754C76.7895 19.8232 76.6523 19.7312 76.3575 19.7312H75.9255V19.7327L75.923 19.7317ZM76.4745 19.3469C76.9065 19.3469 77.03 19.1214 77.03 18.9225C77.03 18.6872 76.9065 18.5014 76.4745 18.5014H75.923V19.3479H76.4745V19.3469ZM73.9219 19.6257C73.9219 18.1558 75.1123 17.1621 76.4602 17.1621C77.8121 17.1621 79.001 18.1558 79.001 19.6257C79.001 21.0928 77.8125 22.0874 76.4602 22.0874C75.1123 22.0874 73.9219 21.0928 73.9219 19.6257Z" fill="#FF5A00"/>
<path d="M65.1238 21.6592L62.1974 18.4414L59.2967 21.6592H53.1931L59.1585 15.0881L53.1931 8.51512H59.4873L62.4433 11.7082L65.2878 8.51512H71.3618L65.426 15.0605L71.4442 21.6592H65.1238ZM41.4727 21.6592V0.953125H53.1931V5.56846H46.4372V8.51512H53.1931V12.9562H46.4372V17.0322H53.1931V21.6592H41.4727Z" fill="#FF5A00"/>
<path d="M36.527 0.953125V9.42741H36.4722C35.3776 8.19391 34.0094 7.76402 32.423 7.76402C29.1722 7.76402 26.7233 9.93234 25.8637 12.7968C24.8831 9.63994 22.3546 7.70496 18.6061 7.70496C15.5612 7.70496 13.1577 9.04448 11.9021 11.2278V8.51487H5.6094V5.56908H12.4773V0.954095H0V21.6598H5.6094V12.9565H11.2005C11.0283 13.6258 10.9422 14.3136 10.9443 15.0038C10.9443 19.3211 14.3091 22.355 18.6052 22.355C22.2164 22.355 24.5982 20.6911 25.8567 17.6621H21.0492C20.3994 18.5736 19.9057 18.8428 18.6057 18.8428C17.0988 18.8428 15.7982 17.5531 15.7982 16.0263H25.5872C26.0118 19.4562 28.7372 22.4136 32.4778 22.4136C34.0914 22.4136 35.5686 21.6356 36.4717 20.3213H36.526V21.6627H41.4718V0.954095H36.527V0.953125ZM15.9543 13.0185C16.2668 11.7027 17.3071 10.8429 18.6057 10.8429C20.0355 10.8429 21.023 11.6761 21.2822 13.0185H15.9543ZM33.5255 18.5088C31.7031 18.5088 30.5705 16.8439 30.5705 15.105C30.5705 13.246 31.556 11.4602 33.5255 11.4602C35.5691 11.4602 36.3833 13.247 36.3833 15.105C36.3833 16.8662 35.5212 18.5088 33.5255 18.5088Z" fill="#29007C"/>
<script xmlns=""/><script xmlns=""/></svg>