<svg version="1.2" xmlns="http://www.w3.org/2000/svg" viewBox="0 0 500 500" width="500" height="500">
	<defs>
		<linearGradient id="g1" x2="1" gradientUnits="userSpaceOnUse" gradientTransform="matrix(-83.105,39.385,-11.926,-25.165,538.717,155.837)">
			<stop offset="0" stop-color="#9a9c9f"/>
			<stop offset="1" stop-color="#555e5e"/>
		</linearGradient>
		<linearGradient id="g2" x2="1" gradientUnits="userSpaceOnUse" gradientTransform="matrix(-82.124,41.392,-12.263,-24.331,537.736,82.304)">
			<stop offset="0" stop-color="#9a9c9f"/>
			<stop offset="1" stop-color="#555e5e"/>
		</linearGradient>
	</defs>
	<style>
		.s0 { fill: url(#g1) } 
		.s1 { fill: url(#g2) } 
		.s2 { fill: #1c65c8 } 
		.s3 { fill: #9a9c9f } 
		.s4 { fill: #0169b6 } 
	</style>
	<g id="Group 1">
		<g id="Group 17">
			<g id="Group 26">
				<path id="Object 27" class="s0" d="m363.65 195.22q-48.74 21.5-97.48 43.01c-16.66 8.24-30.2 19.21-31.54 40.85q0 12.72 0 25.45 48.2-21.15 96.4-42.29c19.86-9.23 31.52-23.38 32.26-44.08q0.18-11.47 0.36-22.94z"/>
				<path id="Object 28" class="s1" d="m363.65 123.7c-32.23 17.64-70.03 35.07-98.96 45.96-16.66 8.24-28.72 16.26-30.06 37.9q0 12.72 0 25.44 48.2-21.14 96.4-42.29c19.86-9.23 31.52-23.38 32.26-44.08q0.18-11.47 0.36-22.93z"/>
				<path id="Object 29" class="s2" d="m431.8 53.23c-105.68 52.03-226.25 72.84-261.99 88.68-23.5 12.16-33.8 31.54-27.08 60.24 4.97 19.54 27.55 28.76 50.28 37.66l36.49 14.29c-74.45 38.96-81.95 79.86-86.77 146.57 19.86-61.03 70-86.52 105-101.81 25.63-11.16 38.86-30.59 34.27-61.9-5.95-21.82-23.04-33.4-46.98-38.68q-20.45-7.18-40.89-14.37c30.28-9.64 198.78-70.02 237.67-130.68z"/>
				<path id="Object 30" class="s3" d="m363.65 262.11q-48.74 21.5-97.48 43c-49.41 23.26-92.13 52.64-106.75 91.24 57.91-49.38 201.6-47.67 203.87-111.3q0.18-11.47 0.36-22.94z"/>
				<path id="Object 31" class="s4" d="m354.92 85.27c54.63 34.92 90.86 96.11 90.86 165.77 0 108.57-88.02 196.59-196.6 196.59-108.57 0-196.59-88.02-196.59-196.59 0-69.66 36.23-130.85 90.87-165.77-46.74 33.15-77.24 87.68-77.24 149.34 0 101.04 81.92 182.96 182.96 182.96 101.05 0 182.97-81.92 182.97-182.96 0-61.66-30.5-116.19-77.23-149.34z"/>
			</g>
		</g>
	</g>
</svg>