<svg width="24" height="31" viewBox="0 0 24 31" fill="none" xmlns="http://www.w3.org/2000/svg">
<path d="M11.9997 29.1782C12.2434 29.0564 18.5783 26.3289 20.5887 24.691C22.6603 22.9933 23.7561 20.5681 23.7561 17.6578V4.01563L23.5737 3.9547C18.5171 1.22603 12.2434 1.4088 11.9385 1.4088C11.6949 1.4088 5.4212 1.2272 0.364601 3.95587L0.242188 4.0168V17.7199C0.242188 20.6302 1.3392 23.0554 3.40963 24.7531C5.4212 26.3886 11.7561 29.1173 11.9997 29.1782Z" fill="#341B14"/>
<path d="M12 29.4785C12 29.4785 5.29907 26.5681 3.22864 24.9312C1.0358 23.1128 0 20.6265 0 17.7758V3.5879C5.29907 0.7372 12 0.979738 12 0.979738C12 0.979738 18.7009 0.7372 24 3.5879V17.716C24 20.5655 22.9642 23.0518 20.7714 24.8715C18.7009 26.5681 12 29.4785 12 29.4785ZM0.974595 17.7758C0.974595 20.4437 1.94919 22.6265 3.83718 24.1427C5.54272 25.537 10.5981 27.7808 12 28.3877C13.4007 27.7808 18.5173 25.4772 20.1628 24.1427C22.0508 22.6265 23.0254 20.3828 23.0254 17.7758V3.83044C15.9596 3.16258 7.55311 3.52697 0.974595 9.59042V17.7758Z" fill="#FFB406"/>
<path d="M18.7603 15.776C19.6737 16.322 20.0398 16.6852 20.101 17.353C20.101 18.0806 19.6137 18.5047 18.8215 18.5047C18.1518 18.5047 17.3596 18.1403 16.8111 17.6553V19.5955C17.4809 19.9598 18.273 20.2621 19.1264 20.2621C21.198 20.2621 22.1726 18.807 22.1726 17.4725C22.2338 16.2599 21.8677 15.2898 20.101 14.2588C19.3088 13.7738 18.7003 13.4703 18.7003 12.7428C18.7003 12.0152 19.37 11.7118 19.9185 11.7118C20.6495 11.7118 21.3804 12.1359 21.8065 12.5612V10.7429C21.4405 10.4394 20.6495 10.0153 19.4913 10.0762C18.0906 10.1371 16.6287 11.1072 16.6287 12.8049C16.6899 13.9566 17.0548 14.806 18.7603 15.776ZM11.5733 20.1414C11.7557 20.2024 12.0606 20.2633 12.5479 20.2633C14.9231 20.2633 16.2638 18.1415 16.2638 15.1094C16.2638 12.0176 14.8631 10.1371 12.3654 10.1371C11.2084 10.1371 10.2938 10.3797 9.50285 10.8647V24.5677H11.5744V20.1414H11.5733ZM11.5733 11.8957C11.7557 11.8348 12.0606 11.7141 12.3042 11.7141C13.5225 11.7141 14.0098 12.6842 14.0098 15.0485C14.0098 17.353 13.4 18.4438 12.1818 18.4438C11.8769 18.4438 11.6333 18.3829 11.5121 18.3219V11.8957H11.5733ZM5.1772 20.2621C6.45665 20.2621 7.55248 19.9587 8.34463 19.4127V10.2578H6.213V18.2001C5.96935 18.3817 5.6645 18.4426 5.2384 18.4426C4.26381 18.4426 4.1414 17.5334 4.1414 16.9875V10.2578H2.00977V16.8668C2.00977 19.1104 3.1056 20.2621 5.1772 20.2621ZM19.37 28.4481V29.8423H19.6137V29.2963H19.6749L20.0409 29.8423H20.3458C20.3458 29.8423 19.9797 29.2963 19.9197 29.2354C20.1022 29.1745 20.2246 29.0538 20.2246 28.871C20.2246 28.6894 20.1022 28.4469 19.7373 28.4469H19.37V28.4481ZM19.7349 28.6297C19.9174 28.6297 19.9786 28.7515 19.9786 28.8113C19.9786 28.9331 19.9174 29.0538 19.6737 29.0538H19.6125V28.6297H19.7349Z" fill="#FFB406"/>
<path d="M20.7111 29.1157C20.7111 29.6004 20.285 30.0243 19.7977 30.0243C19.3104 30.0243 18.8843 29.6004 18.8843 29.1157C18.8843 28.631 19.3104 28.2072 19.7977 28.2072C20.3462 28.2072 20.7111 28.631 20.7111 29.1157ZM19.7977 27.9648C19.188 27.9648 18.6406 28.4495 18.6406 29.1157C18.6406 29.7222 19.1279 30.2666 19.7977 30.2666C20.4074 30.2666 20.9547 29.7819 20.9547 29.1157C20.9547 28.5093 20.4074 27.9648 19.7977 27.9648Z" fill="#FFB406"/>
<script xmlns=""/><script xmlns=""/></svg>